<?xml version="1.0" standalone="no"?>
<svg xmlns="http://www.w3.org/2000/svg" viewBox="0 0 65.2 29" width="65.2" height="29"><path fill="#5e00ff" fill-rule="nonzero" d="M2.33 19.49L2.33 19.49Q0.96 19.08 0.48 18.71Q0 18.34 0 17.69L0 17.69Q0 16.97 0.34 15.66Q0.67 14.35 1.21 12.74Q1.75 11.14 2.45 9.38Q3.14 7.63 3.86 6.02Q4.58 4.42 5.27 3.08Q5.95 1.75 6.48 1.01L6.48 1.01L6.31 0Q6.65 0 7.25 0.17Q7.85 0.34 8.46 0.58Q9.07 0.82 9.54 1.07Q10.01 1.32 10.06 1.49L10.06 1.49Q9.94 2.06 9.86 3.23Q9.79 4.39 9.79 5.71L9.79 5.71Q9.79 8.33 10.00 10.84Q10.20 13.34 10.94 15.94L10.94 15.94Q11.33 14.02 11.77 12.11Q12.22 10.20 12.70 8.46Q13.18 6.72 13.66 5.23Q14.14 3.74 14.58 2.63Q15.02 1.51 15.41 0.88Q15.79 0.24 16.10 0.19L16.10 0.19Q16.37 0.24 16.68 0.40Q16.99 0.55 17.28 0.77Q17.57 0.98 17.81 1.25Q18.05 1.51 18.19 1.78L18.19 1.78Q17.42 2.09 16.67 3.24Q15.91 4.39 15.23 6.04Q14.54 7.68 13.96 9.60Q13.37 11.52 12.92 13.38Q12.48 15.24 12.23 16.82Q11.98 18.41 11.95 19.37L11.95 19.37Q11.95 19.42 11.98 19.44L11.98 19.44Q11.90 19.46 11.82 19.46Q11.74 19.46 11.66 19.46L11.66 19.46Q10.56 19.46 9.71 19.19Q8.86 18.91 8.59 18.41L8.59 18.41Q8.09 16.39 7.75 14.52Q7.42 12.65 7.19 10.78Q6.96 8.90 6.83 7.00Q6.70 5.09 6.62 3.00L6.62 3.00Q6.17 3.72 5.66 4.88Q5.16 6.05 4.68 7.44Q4.20 8.83 3.76 10.37Q3.31 11.90 2.98 13.37Q2.64 14.83 2.45 16.14Q2.26 17.45 2.26 18.41L2.26 18.41Q2.26 18.91 2.27 19.13Q2.28 19.34 2.33 19.49Z" transform="translate(0, 4.756)"></path><line x1="27.192" y1="2%" x2="27.192" y2="98%" stroke="#5e00ff" stroke-linecap="round"></line><g fill="#a16aff" color="#a16aff" transform="translate(36.192 0) scale(0.6041667)"><svg width="48.0" height="48.0" x="0.0" y="0.0" viewBox="0 0 48 48"><path fill="currentColor" fill-rule="evenodd" d="M21.088 35.003c-.108 0-.27 0-.432-.054-1.294-.27-1.294-1.403-1.348-2.212-.054-.862-.108-1.186-.54-1.887-.215-.324.054-.647.378-.647.054 0 .108 0 .216.054 1.402.7 3.344 1.887 3.29 3.182 0 .054-.216 1.564-1.564 1.564m-2.643-14.994c-.054.162-.162.27-.378.378a1.787 1.787 0 0 1-1.294 0c-.593-.27-1.133-.701-1.564-1.079-.701-.593-1.348-1.132-2.157-.97-.54.053-.971.377-1.349.97-.161.27-.27.594-.161.917.215.755 1.024 1.187 2.319 1.888 2.21 1.186 4.045 2.265 4.045 3.883v.431c0 .108-.054.162-.054.27 0 .054-.054.108-.054.162 0 .054-.054.108-.054.162-.054.107-.108.161-.216.27l-.162.161c-.431.324-1.024.485-1.564.485-.755 0-1.726-.323-1.887-1.294-.27-1.402-2.535-3.074-4.53-3.236-.972-.108-1.834.162-2.428.755l-.215.27c-.054.054-.108.162-.162.216-.054.107-.108.161-.162.27 0 .053-.054.053-.054.107-.054.054-.054.108-.108.216-.054 0-.054.054-.054.108-.054.054-.054.162-.054.215-.27 1.187 1.24 2.104 3.236 3.344 3.29 1.996 5.879 3.83 4.908 6.095-.216.485-.647.97-1.186 1.294a3.536 3.536 0 0 1-1.78.485c-1.24 0-2.265-.755-2.859-2.103-.593-1.348-1.294-2.05-2.103-2.05-.593 0-1.133.324-1.51.971-.162.378-.324.81-.324 1.295-1.833-3.236-2.912-7.011-2.912-10.949C1.618 11.596 11.649 1.564 24 1.564c1.672 0 3.344.162 4.962.54.593.162.809.54.917.863.161.539 0 1.186-.432 1.564-.377.377-.97.431-1.672.215-1.456-.431-2.912-.215-3.775.648-.593.593-.809 1.402-.54 2.157.216.647.918 1.726 3.29 2.157 1.834.324 3.183.216 4.854.108a54.109 54.109 0 0 1 3.29-.108c3.128 0 4.854 1.564 5.394 2.859.377.917.27 1.78-.324 2.373-1.186 1.186-4.207-.216-5.609-1.025-.162-.108-.27-.162-.431-.27-.378-.215-.863-.108-1.08.27-.215.378-.107.863.217 1.079.054.054.215.161.431.27 1.834 1.186 2.859 2.804 2.859 4.476 0 1.402-.755 2.642-2.05 3.451-1.025.594-1.941.648-2.643.054-.7-.593-.97-1.672-.593-2.696.378-1.133.216-2.212-.485-3.02-1.133-1.295-3.506-1.78-6.04-1.295-.162.054-.324.054-.432.108-.917.27-2.697.97-4.045 2.157-.485-1.618-2.157-2.642-3.506-3.397-.809-.486-1.887-1.133-1.887-1.51 0-.486.593-1.241 1.24-1.403.593-.162 1.133.216 1.618 1.025.755 1.348 2.157 2.265 3.398 2.157 1.025-.054 1.887-.647 2.373-1.726.377-.809.377-1.833.054-2.696-.27-.701-.917-1.618-2.427-2.212a.797.797 0 0 0-1.025.432.797.797 0 0 0 .432 1.025c.809.323 1.294.755 1.51 1.294.215.54.108 1.079 0 1.402-.216.54-.54.81-.971.81-.647.053-1.51-.54-1.942-1.349-1.186-2.103-2.804-1.942-3.397-1.78-1.349.324-2.481 1.672-2.481 2.966 0 1.295 1.294 2.05 2.642 2.859 1.996 1.186 3.236 2.05 2.75 3.613M23.947 0c1.834 0 3.614.216 5.34.594 1.078.215 1.833.97 2.103 1.995.27 1.079-.054 2.32-.863 3.128-.486.432-1.564 1.133-3.29.594-1.079-.324-1.834-.054-2.157.27-.108.107-.216.323-.162.539.108.377.701.862 2.05 1.078 1.671.27 2.912.216 4.476.108.97-.054 2.05-.108 3.397-.108 3.938 0 6.149 2.05 6.904 3.83.647 1.51.377 3.074-.647 4.098-1.025 1.025-2.481 1.079-3.884.755.54.917.81 1.888.81 2.913 0 1.995-1.025 3.775-2.859 4.854-1.564.97-3.236.97-4.476-.054-1.24-1.025-1.672-2.859-1.079-4.477.216-.593.108-1.078-.216-1.456-.72-.824-2.424-1.107-4.22-.802l-.256.047h-.054c-.054.054-.162.054-.216.108-1.186.54-2.48 3.236-2.373 6.256 0 1.672.432 5.77 4.369 7.227 1.78.701 3.505 1.025 5.123 1.025 2.75 0 5.07-.971 7.12-2.427 1.132-.755 2.21-1.726 3.235-2.697 2.178-2.333 3.708-4.966 4.014-6.891l.031-.228v-.054c0-.054.054-.108.054-.162 0 0 .03-.03.046-.068l.008-.04.108-.107.023-.023.085-.085s.054-.054.108-.054c.036 0 .072-.024.108-.04l.054-.014h.323c.054 0 .108.054.162.054 0 0 .03.03.068.045l.04.009.216.215s.053.054.053.108c0 .036.024.072.04.108l.014.054v.054c.216 1.348.324 2.157.324 3.667 0 12.868-10.202 23.41-23.07 23.881l-.39.012h-1.834c-1.618-.054-3.236-.27-4.746-.702-.122 0-.243-.03-.364-.068l-.122-.04h-.054c-.054 0-.108-.053-.162-.053C7.281 44.063 0 34.84 0 23.946 0 10.733 10.787-.054 23.946 0zm16.611 18.23c.378 0 .701.108 1.079.323 1.618 1.079 2.373 2.265 2.157 3.506 0 .108-.054.162-.054.216-.323.917-1.132 1.833-2.373 1.833-.27 0-.593-.054-.863-.161a2.387 2.387 0 0 1-1.51-1.618 3.42 3.42 0 0 1-.073-1.096l.02-.145v-.216c-.055 0-.055 0-.055-.054-.27-.539-.215-1.186.108-1.725.378-.54.917-.863 1.564-.863zm0 1.672c-.161 0-.27.161-.215.323.215.378.215.54.16 1.025-.053.431-.106 1.025.54 1.24a.687.687 0 0 0 .324.054c.594 0 .81-.7.81-.647.107-.701-.864-1.456-1.51-1.941 0-.054-.055-.054-.109-.054zM35.542 2.319c.754.108 3.073.378 3.667 2.104 0 .054.054.162.054.215.054.216.161 1.133-.432 1.942-.377.54-1.025.863-1.726.97h-.323c-.7 0-1.348-.269-1.834-.808-.323-.324-.485-.701-.593-.97v-.055c0-.054-.054-.108-.054-.108l-.054-.054c-.593-.431-.862-1.24-.647-1.995.216-.755.917-1.24 1.726-1.24zm-.162 1.564c-.216 0-.324.27-.216.378.378.27.485.431.648.809.161.377.376.863.97.863h.162c.868-.097.83-.84.812-.996l-.003-.029c-.216-.647-1.51-.917-2.373-1.025z"></path></svg></g></svg>